{
  "accessors": [
    {
      "bufferView": 2,
      "componentType": 5126,
      "count": 65532,
      "max": [
        1.523680329322815,
        1.3015002012252808,
        1.723588228225708
      ],
      "min": [
        -0.6906758546829224,
        -1.1653428077697754,
        -2.1463463306427
      ],
      "type": "VEC3"
    },
    {
      "bufferView": 2,
      "byteOffset": 786384,
      "componentType": 5126,
      "count": 65532,
      "max": [
        1.0,
        1.0,
        1.0
      ],
      "min": [
        -1.0,
        -1.0,
        -1.0
      ],
      "type": "VEC3"
    },
    {
      "bufferView": 3,
      "componentType": 5126,
      "count": 65532,
      "max": [
        0.9999971985816956,
        0.999997079372406,
        0.9999869465827942,
        1.0
      ],
      "min": [
        -0.9999998211860657,
        -0.999997079372406,
        -0.9999973773956299,
        -1.0
      ],
      "type": "VEC4"
    },
    {
      "bufferView": 1,
      "componentType": 5126,
      "count": 65532,
      "max": [
        0.9959796667098999,
        0.9039872288703918
      ],
      "min": [
        0.0039049582555890083,
        0.003908553626388311
      ],
      "type": "VEC2"
    },
    {
      "bufferView": 0,
      "componentType": 5125,
      "count": 116799,
      "type": "SCALAR"
    },
    {
      "bufferView": 2,
      "byteOffset": 1572768,
      "componentType": 5126,
      "count": 65532,
      "max": [
        1.523680329322815,
        1.8994883298873901,
        1.7236473560333252
      ],
      "min": [
        -1.5105007886886597,
        -1.5092438459396362,
        -2.8498809337615967
      ],
      "type": "VEC3"
    },
    {
      "bufferView": 2,
      "byteOffset": 2359152,
      "componentType": 5126,
      "count": 65532,
      "max": [
        0.9999901652336121,
        0.999995231628418,
        0.99998939037323
      ],
      "min": [
        -0.999997079372406,
        -0.9999943971633911,
        -0.9999997615814209
      ],
      "type": "VEC3"
    },
    {
      "bufferView": 3,
      "byteOffset": 1048512,
      "componentType": 5126,
      "count": 65532,
      "max": [
        0.9998043179512024,
        0.9998267292976379,
        0.9999454617500305,
        1.0
      ],
      "min": [
        -0.9999957084655762,
        -0.9999954700469971,
        -0.9997879266738892,
        -1.0
      ],
      "type": "VEC4"
    },
    {
      "bufferView": 1,
      "byteOffset": 524256,
      "componentType": 5126,
      "count": 65532,
      "max": [
        0.9958666563034058,
        0.9686977863311768
      ],
      "min": [
        0.0039015337824821472,
        0.003902960568666458
      ],
      "type": "VEC2"
    },
    {
      "bufferView": 0,
      "byteOffset": 467196,
      "componentType": 5125,
      "count": 326193,
      "type": "SCALAR"
    },
    {
      "bufferView": 2,
      "byteOffset": 3145536,
      "componentType": 5126,
      "count": 23689,
      "max": [
        1.5217171907424927,
        1.8968664407730103,
        1.7203963994979858
      ],
      "min": [
        -1.5072187185287476,
        -1.5092438459396362,
        -2.8488452434539795
      ],
      "type": "VEC3"
    },
    {
      "bufferView": 2,
      "byteOffset": 3429804,
      "componentType": 5126,
      "count": 23689,
      "max": [
        0.9997105598449707,
        0.9999058246612549,
        0.9991864562034607
      ],
      "min": [
        -0.999997079372406,
        -0.9999861121177673,
        -0.9999437928199768
      ],
      "type": "VEC3"
    },
    {
      "bufferView": 3,
      "byteOffset": 2097024,
      "componentType": 5126,
      "count": 23689,
      "max": [
        0.9999852180480957,
        0.9998019933700562,
        0.9999240636825562,
        1.0
      ],
      "min": [
        -0.9999957084655762,
        -0.999994695186615,
        -0.9998830556869507,
        -1.0
      ],
      "type": "VEC4"
    },
    {
      "bufferView": 1,
      "byteOffset": 1048512,
      "componentType": 5126,
      "count": 23689,
      "max": [
        0.9960924386978149,
        0.9691028594970703
      ],
      "min": [
        0.00390086998231709,
        0.0039042532444000244
      ],
      "type": "VEC2"
    },
    {
      "bufferView": 0,
      "byteOffset": 1771968,
      "componentType": 5125,
      "count": 81744,
      "type": "SCALAR"
    }
  ],
  "asset": {
    "extras": {
      "author": "Viktor_ (https://sketchfab.com/Viktor.Zhuravlev)",
      "license": "CC-BY-4.0 (http://creativecommons.org/licenses/by/4.0/)",
      "source": "https://sketchfab.com/3d-models/beautiful-shrek-f1d6044f61e74112b7eb374f5e4a41d8",
      "title": "beautiful Shrek"
    },
    "generator": "Sketchfab-16.10.0",
    "version": "2.0"
  },
  "bufferViews": [
    {
      "buffer": 0,
      "byteLength": 2098944,
      "name": "floatBufferViews",
      "target": 34963
    },
    {
      "buffer": 0,
      "byteLength": 1238024,
      "byteOffset": 2098944,
      "byteStride": 8,
      "name": "floatBufferViews",
      "target": 34962
    },
    {
      "buffer": 0,
      "byteLength": 3714072,
      "byteOffset": 3336968,
      "byteStride": 12,
      "name": "floatBufferViews",
      "target": 34962
    },
    {
      "buffer": 0,
      "byteLength": 2476048,
      "byteOffset": 7051040,
      "byteStride": 16,
      "name": "floatBufferViews",
      "target": 34962
    }
  ],
  "buffers": [
    {
      "byteLength": 9527088,
      "uri": "scene.bin"
    }
  ],
  "images": [
    {
      "uri": "textures/Scene_-_Root_baseColor.png"
    },
    {
      "uri": "textures/Scene_-_Root_metallicRoughness.png"
    },
    {
      "uri": "textures/Scene_-_Root_normal.png"
    }
  ],
  "materials": [
    {
      "doubleSided": true,
      "name": "Scene_-_Root",
      "normalTexture": {
        "index": 2
      },
      "occlusionTexture": {
        "index": 1
      },
      "pbrMetallicRoughness": {
        "baseColorTexture": {
          "index": 0
        },
        "metallicRoughnessTexture": {
          "index": 1
        }
      }
    }
  ],
  "meshes": [
    {
      "name": "Sphere.002__0",
      "primitives": [
        {
          "attributes": {
            "NORMAL": 1,
            "POSITION": 0,
            "TANGENT": 2,
            "TEXCOORD_0": 3
          },
          "indices": 4,
          "material": 0,
          "mode": 4
        }
      ]
    },
    {
      "name": "Sphere.002__0",
      "primitives": [
        {
          "attributes": {
            "NORMAL": 6,
            "POSITION": 5,
            "TANGENT": 7,
            "TEXCOORD_0": 8
          },
          "indices": 9,
          "material": 0,
          "mode": 4
        }
      ]
    },
    {
      "name": "Sphere.002__0",
      "primitives": [
        {
          "attributes": {
            "NORMAL": 11,
            "POSITION": 10,
            "TANGENT": 12,
            "TEXCOORD_0": 13
          },
          "indices": 14,
          "material": 0,
          "mode": 4
        }
      ]
    }
  ],
  "nodes": [
    {
      "children": [
        1
      ],
      "matrix": [
        1.0,
        0.0,
        0.0,
        0.0,
        0.0,
        2.220446049250313e-16,
        -1.0,
        0.0,
        0.0,
        1.0,
        2.220446049250313e-16,
        0.0,
        0.0,
        0.0,
        0.0,
        1.0
      ],
      "name": "Sketchfab_model"
    },
    {
      "children": [
        2
      ],
      "matrix": [
        0.009999999776482582,
        0.0,
        0.0,
        0.0,
        0.0,
        0.0,
        0.009999999776482582,
        0.0,
        0.0,
        -0.009999999776482582,
        0.0,
        0.0,
        0.0,
        0.0,
        0.0,
        1.0
      ],
      "name": "bc7c85c6497f4ec2b623fc1cb0602111.fbx"
    },
    {
      "children": [
        3
      ],
      "name": "RootNode"
    },
    {
      "children": [
        4,
        5,
        6
      ],
      "matrix": [
        100.0,
        0.0,
        0.0,
        0.0,
        0.0,
        -1.629206793918314e-05,
        -99.99999999999868,
        0.0,
        0.0,
        99.99999999999868,
        -1.629206793918314e-05,
        0.0,
        0.0,
        194.28256225585938,
        0.0,
        1.0
      ],
      "name": "Sphere.002"
    },
    {
      "mesh": 0,
      "name": "Sphere.002__0"
    },
    {
      "mesh": 1,
      "name": "Sphere.002__0"
    },
    {
      "mesh": 2,
      "name": "Sphere.002__0"
    }
  ],
  "samplers": [
    {
      "magFilter": 9729,
      "minFilter": 9987,
      "wrapS": 10497,
      "wrapT": 10497
    }
  ],
  "scene": 0,
  "scenes": [
    {
      "name": "Sketchfab_Scene",
      "nodes": [
        0
      ]
    }
  ],
  "textures": [
    {
      "sampler": 0,
      "source": 0
    },
    {
      "sampler": 0,
      "source": 1
    },
    {
      "sampler": 0,
      "source": 2
    }
  ]
}
