{
  "accessors": [
    {
      "bufferView": 2,
      "componentType": 5126,
      "count": 51,
      "max": [
        3.988224983215332,
        10.074520111083984,
        3.870069980621338
      ],
      "min": [
        -3.8927419185638428,
        6.515810012817383,
        -3.597240924835205
      ],
      "type": "VEC3"
    },
    {
      "bufferView": 2,
      "byteOffset": 612,
      "componentType": 5126,
      "count": 51,
      "max": [
        0.9997396469116211,
        0.9856529831886292,
        0.8709730505943298
      ],
      "min": [
        -0.9826362133026123,
        -0.8658826947212219,
        -0.9180517196655273
      ],
      "type": "VEC3"
    },
    {
      "bufferView": 3,
      "componentType": 5126,
      "count": 51,
      "max": [
        0.798732578754425,
        0.867474377155304,
        0.8383134603500366,
        1.0
      ],
      "min": [
        -0.9810705184936523,
        -0.9358295202255249,
        -0.866474986076355,
        1.0
      ],
      "type": "VEC4"
    },
    {
      "bufferView": 1,
      "componentType": 5126,
      "count": 51,
      "max": [
        1.0,
        0.9874640703201294
      ],
      "min": [
        0.0,
        0.012535990215837955
      ],
      "type": "VEC2"
    },
    {
      "bufferView": 0,
      "componentType": 5125,
      "count": 123,
      "type": "SCALAR"
    },
    {
      "bufferView": 2,
      "byteOffset": 1224,
      "componentType": 5126,
      "count": 1104,
      "max": [
        1.749722957611084,
        9.83580207824707,
        1.9965040683746338
      ],
      "min": [
        -1.474153995513916,
        0.20316988229751587,
        -2.048074722290039
      ],
      "type": "VEC3"
    },
    {
      "bufferView": 2,
      "byteOffset": 14472,
      "componentType": 5126,
      "count": 1104,
      "max": [
        0.9988374710083008,
        0.9865825772285461,
        0.9993653893470764
      ],
      "min": [
        -0.9989643096923828,
        -0.9864687323570251,
        -0.9994798302650452
      ],
      "type": "VEC3"
    },
    {
      "bufferView": 3,
      "byteOffset": 816,
      "componentType": 5126,
      "count": 1104,
      "max": [
        0.9940654039382935,
        0.9995708465576172,
        0.9870655536651611,
        1.0
      ],
      "min": [
        -0.9991757869720459,
        -0.999862790107727,
        -0.9946855306625366,
        -1.0
      ],
      "type": "VEC4"
    },
    {
      "bufferView": 1,
      "byteOffset": 408,
      "componentType": 5126,
      "count": 1104,
      "max": [
        2.471726894378662,
        4.541558265686035
      ],
      "min": [
        -1.4410829544067383,
        -0.705772876739502
      ],
      "type": "VEC2"
    },
    {
      "bufferView": 0,
      "byteOffset": 492,
      "componentType": 5125,
      "count": 3264,
      "type": "SCALAR"
    },
    {
      "bufferView": 2,
      "byteOffset": 27720,
      "componentType": 5126,
      "count": 2792,
      "max": [
        3.988224983215332,
        10.104229927062988,
        3.76534104347229
      ],
      "min": [
        -3.804349899291992,
        0.19867420196533203,
        -3.5122640132904053
      ],
      "type": "VEC3"
    },
    {
      "bufferView": 2,
      "byteOffset": 61224,
      "componentType": 5126,
      "count": 2792,
      "max": [
        0.9988374710083008,
        0.9948920011520386,
        0.9992797374725342
      ],
      "min": [
        -0.9999291896820068,
        -0.9935063123703003,
        -0.9970508813858032
      ],
      "type": "VEC3"
    },
    {
      "bufferView": 3,
      "byteOffset": 18480,
      "componentType": 5126,
      "count": 2792,
      "max": [
        0.9999304413795471,
        0.9971069097518921,
        0.9998450875282288,
        1.0
      ],
      "min": [
        -0.9999370574951172,
        -0.9967814683914185,
        -0.9996508359909058,
        1.0
      ],
      "type": "VEC4"
    },
    {
      "bufferView": 1,
      "byteOffset": 9240,
      "componentType": 5126,
      "count": 2792,
      "max": [
        4.952167987823486,
        4.937897682189941
      ],
      "min": [
        -1.8708219528198242,
        -1.1275980472564697
      ],
      "type": "VEC2"
    },
    {
      "bufferView": 0,
      "byteOffset": 13548,
      "componentType": 5125,
      "count": 9516,
      "type": "SCALAR"
    },
    {
      "bufferView": 2,
      "byteOffset": 94728,
      "componentType": 5126,
      "count": 4845,
      "max": [
        5.402780055999756,
        10.408570289611816,
        4.760217189788818
      ],
      "min": [
        -5.452046871185303,
        5.359175205230713,
        -4.836924076080322
      ],
      "type": "VEC3"
    },
    {
      "bufferView": 2,
      "byteOffset": 152868,
      "componentType": 5126,
      "count": 4845,
      "max": [
        0.9998836517333984,
        0.9986118674278259,
        0.9999949932098389
      ],
      "min": [
        -0.9999726414680481,
        -0.5001180171966553,
        -0.9999986290931702
      ],
      "type": "VEC3"
    },
    {
      "bufferView": 3,
      "byteOffset": 63152,
      "componentType": 5126,
      "count": 4845,
      "max": [
        0.9998589754104614,
        0.999957263469696,
        0.999731719493866,
        1.0
      ],
      "min": [
        -0.9998364448547363,
        -1.0,
        -0.9997013211250305,
        -1.0
      ],
      "type": "VEC4"
    },
    {
      "bufferView": 1,
      "byteOffset": 31576,
      "componentType": 5126,
      "count": 4845,
      "max": [
        0.5791019797325134,
        0.7890629768371582
      ],
      "min": [
        0.0,
        0.0
      ],
      "type": "VEC2"
    },
    {
      "bufferView": 0,
      "byteOffset": 51612,
      "componentType": 5125,
      "count": 10332,
      "type": "SCALAR"
    }
  ],
  "asset": {
    "extras": {
      "author": "BaptisteBerard (https://sketchfab.com/BaptisteBerard)",
      "license": "CC-BY-4.0 (http://creativecommons.org/licenses/by/4.0/)",
      "source": "https://sketchfab.com/3d-models/great-bald-cypress-dca97787b1b24fd8a0fb6bb536e383e3",
      "title": "Great Bald Cypress"
    },
    "generator": "Sketchfab-12.68.0",
    "version": "2.0"
  },
  "bufferViews": [
    {
      "buffer": 0,
      "byteLength": 92940,
      "name": "floatBufferViews",
      "target": 34963
    },
    {
      "buffer": 0,
      "byteLength": 70336,
      "byteOffset": 92940,
      "byteStride": 8,
      "name": "floatBufferViews",
      "target": 34962
    },
    {
      "buffer": 0,
      "byteLength": 211008,
      "byteOffset": 163276,
      "byteStride": 12,
      "name": "floatBufferViews",
      "target": 34962
    },
    {
      "buffer": 0,
      "byteLength": 140672,
      "byteOffset": 374284,
      "byteStride": 16,
      "name": "floatBufferViews",
      "target": 34962
    }
  ],
  "buffers": [
    {
      "byteLength": 514956,
      "uri": "scene.bin"
    }
  ],
  "images": [
    {
      "uri": "textures/bald_cypress_03Fronds_3_baseColor.png"
    },
    {
      "uri": "textures/bald_cypress_03Fronds_3_normal.png"
    },
    {
      "uri": "textures/bald_cypress_03Leaves_4_baseColor.png"
    },
    {
      "uri": "textures/bald_cypress_03Leaves_4_normal.png"
    }
  ],
  "materials": [
    {
      "doubleSided": true,
      "name": "bald_cypress_03Fronds_3",
      "normalTexture": {
        "index": 1
      },
      "pbrMetallicRoughness": {
        "baseColorTexture": {
          "index": 0
        },
        "metallicFactor": 0.0
      }
    },
    {
      "doubleSided": true,
      "name": "bald_cypress_03Branches_2",
      "normalTexture": {
        "index": 1
      },
      "pbrMetallicRoughness": {
        "baseColorTexture": {
          "index": 0
        },
        "metallicFactor": 0.0
      }
    },
    {
      "doubleSided": true,
      "name": "bald_cypress_03Branches_3",
      "normalTexture": {
        "index": 1
      },
      "pbrMetallicRoughness": {
        "baseColorTexture": {
          "index": 0
        },
        "metallicFactor": 0.0
      }
    },
    {
      "alphaCutoff": 0.4651295731707317,
      "alphaMode": "MASK",
      "doubleSided": true,
      "name": "bald_cypress_03Leaves_4",
      "normalTexture": {
        "index": 3,
        "scale": 0.5200076219512195
      },
      "pbrMetallicRoughness": {
        "baseColorTexture": {
          "index": 2
        },
        "metallicFactor": 0.0,
        "roughnessFactor": 0.9529344512195121
      }
    }
  ],
  "meshes": [
    {
      "name": "bald_cypress_03:Mesh_bald_cypress_03:Fronds_3_0",
      "primitives": [
        {
          "attributes": {
            "NORMAL": 1,
            "POSITION": 0,
            "TANGENT": 2,
            "TEXCOORD_0": 3
          },
          "indices": 4,
          "material": 0,
          "mode": 4
        }
      ]
    },
    {
      "name": "bald_cypress_03:Mesh_bald_cypress_03:Branches_2_0",
      "primitives": [
        {
          "attributes": {
            "NORMAL": 6,
            "POSITION": 5,
            "TANGENT": 7,
            "TEXCOORD_0": 8
          },
          "indices": 9,
          "material": 1,
          "mode": 4
        }
      ]
    },
    {
      "name": "bald_cypress_03:Mesh_bald_cypress_03:Branches_3_0",
      "primitives": [
        {
          "attributes": {
            "NORMAL": 11,
            "POSITION": 10,
            "TANGENT": 12,
            "TEXCOORD_0": 13
          },
          "indices": 14,
          "material": 2,
          "mode": 4
        }
      ]
    },
    {
      "name": "bald_cypress_03:Mesh_bald_cypress_03:Leaves_4_0",
      "primitives": [
        {
          "attributes": {
            "NORMAL": 16,
            "POSITION": 15,
            "TANGENT": 17,
            "TEXCOORD_0": 18
          },
          "indices": 19,
          "material": 3,
          "mode": 4
        }
      ]
    }
  ],
  "nodes": [
    {
      "children": [
        1
      ],
      "matrix": [
        112.83517456054688,
        0.0,
        0.0,
        0.0,
        0.0,
        2.5054441756943574e-14,
        -112.83517456054688,
        0.0,
        0.0,
        112.83517456054688,
        2.5054441756943574e-14,
        0.0,
        0.0,
        0.0,
        0.0,
        1.0
      ],
      "name": "Sketchfab_model"
    },
    {
      "children": [
        2
      ],
      "matrix": [
        1.0,
        0.0,
        0.0,
        0.0,
        0.0,
        0.0,
        1.0,
        0.0,
        0.0,
        -1.0,
        0.0,
        0.0,
        0.0,
        0.0,
        0.0,
        1.0
      ],
      "name": "532cc3f5cd4d49c894f5d1cfc89aed8d.fbx"
    },
    {
      "children": [
        3
      ],
      "name": "RootNode"
    },
    {
      "children": [
        4,
        5,
        6,
        7
      ],
      "matrix": [
        1.0,
        0.0,
        0.0,
        0.0,
        0.0,
        1.0,
        0.0,
        0.0,
        0.0,
        0.0,
        1.0,
        0.0,
        0.0,
        -0.20155967772006989,
        0.0,
        1.0
      ],
      "name": "bald_cypress_03:Mesh"
    },
    {
      "mesh": 0,
      "name": "bald_cypress_03:Mesh_bald_cypress_03:Fronds_3_0"
    },
    {
      "mesh": 1,
      "name": "bald_cypress_03:Mesh_bald_cypress_03:Branches_2_0"
    },
    {
      "mesh": 2,
      "name": "bald_cypress_03:Mesh_bald_cypress_03:Branches_3_0"
    },
    {
      "mesh": 3,
      "name": "bald_cypress_03:Mesh_bald_cypress_03:Leaves_4_0"
    }
  ],
  "samplers": [
    {
      "magFilter": 9729,
      "minFilter": 9987,
      "wrapS": 10497,
      "wrapT": 10497
    }
  ],
  "scene": 0,
  "scenes": [
    {
      "name": "Sketchfab_Scene",
      "nodes": [
        0
      ]
    }
  ],
  "textures": [
    {
      "sampler": 0,
      "source": 0
    },
    {
      "sampler": 0,
      "source": 1
    },
    {
      "sampler": 0,
      "source": 2
    },
    {
      "sampler": 0,
      "source": 3
    }
  ]
}
