<svg width="131" height="34" viewBox="0 0 131 34" fill="none" xmlns="http://www.w3.org/2000/svg">
<rect x="0.5" y="0.5" width="130" height="33" rx="16.5" fill="#4E7552" stroke="url(#paint0_linear_2047_12)"/>
<path d="M38.66 21V18.9H34.1V21H32.96V12.54H34.1V17.82H38.66V12.54H39.8V21H38.66ZM44.2336 20.124C45.4216 20.124 46.2136 19.308 46.2136 18.096V17.904C46.2136 16.692 45.4216 15.876 44.2336 15.876C43.0456 15.876 42.2056 16.776 42.2056 18C42.2056 19.212 43.0456 20.124 44.2336 20.124ZM44.2336 21.144C42.5776 21.168 41.1256 19.848 41.1256 18C41.1256 16.14 42.4936 14.88 44.2336 14.856C45.0256 14.844 45.6976 15.084 46.2136 15.66V15H47.2336V21H46.2136V20.34C45.6976 20.916 45.0256 21.156 44.2336 21.144ZM49.9381 14.964V18.384L53.0341 14.964H54.3301L51.1381 18.456L54.4381 21H52.9141L50.4901 19.176L49.9381 19.764V21H48.9181V14.964H49.9381ZM54.5553 18C54.5553 16.14 55.9233 14.832 57.6633 14.856C59.4033 14.88 60.7713 16.14 60.7713 18C60.7713 19.848 59.3193 21.168 57.6633 21.144C55.9233 21.12 54.5553 19.848 54.5553 18ZM55.6353 18C55.6353 19.152 56.4753 20.136 57.6633 20.136C58.8513 20.136 59.6913 19.152 59.6913 18C59.6913 16.836 58.8513 15.864 57.6633 15.864C56.4753 15.864 55.6353 16.836 55.6353 18ZM62.9928 15.96V18.888C63.3168 19.584 63.9768 20.04 64.8168 20.04C65.9808 20.04 66.8448 19.2 66.8448 18.012C66.8448 16.824 65.9688 15.96 64.8168 15.96H62.9928ZM64.8168 21C64.1448 21.012 63.5088 20.82 62.9928 20.46V24H61.9728V15H64.8168C66.4368 15.024 67.9248 16.248 67.9248 18.012C67.9248 19.824 66.4368 21.024 64.8168 21ZM69.1213 21V15H70.3813L72.4573 18.144L74.5333 15H75.7933V21H74.7733V16.428L73.0573 19.08H71.8573L70.1413 16.428V21H69.1213ZM81.5207 15H82.9607L82.9367 15.036V21H81.9167V16.26L78.9167 21H77.4767V15H78.4967V19.74L81.5207 15ZM85.6569 15.96V21H84.6369V15H92.2569V21H91.2369V15.96H88.9569V21H87.9369V15.96H85.6569ZM93.9416 21V15H94.9616V17.736H97.3616C98.8736 17.736 99.2216 18.744 99.2216 19.368C99.2216 19.992 98.8736 21 97.3616 21H93.9416ZM94.9616 18.696V20.04H97.3616C97.9976 20.04 98.2256 19.68 98.2256 19.368C98.2256 19.056 97.9976 18.696 97.3616 18.696H94.9616Z" fill="white"/>
<defs>
<linearGradient id="paint0_linear_2047_12" x1="0" y1="17" x2="131" y2="17" gradientUnits="userSpaceOnUse">
<stop stop-color="#68B83B"/>
<stop offset="1" stop-color="#2E521A"/>
</linearGradient>
</defs>
</svg>
